<svg width="808" height="808" viewBox="0 0 808 808" fill="none" xmlns="http://www.w3.org/2000/svg">
<g filter="url(#filter0_d_110_11)">
<path d="M772 0H36C18.3 0 4 14.3 4 32V768C4 785.7 18.3 800 36 800H772C789.7 800 804 785.7 804 768V32C804 14.3 789.7 0 772 0ZM405.1 406.1L213.1 567.1C207.9 571.5 200 567.8 200 561V498.3C200 496 201.1 493.7 202.9 492.2L312.7 400L202.9 307.8C201.981 307.074 201.241 306.146 200.738 305.088C200.235 304.031 199.983 302.871 200 301.7V239C200 232.2 207.9 228.5 213.1 232.9L405.1 393.8C409 397 409 402.9 405.1 406.1V406.1ZM608 561C608 565.4 604.6 569 600.5 569H415.5C411.4 569 408 565.4 408 561V513C408 508.6 411.4 505 415.5 505H600.5C604.6 505 608 508.6 608 513V561Z" fill="#0096FF" fill-opacity="0.64" shape-rendering="crispEdges"/>
</g>
<defs>
<filter id="filter0_d_110_11" x="0" y="0" width="808" height="808" filterUnits="userSpaceOnUse" color-interpolation-filters="sRGB">
<feFlood flood-opacity="0" result="BackgroundImageFix"/>
<feColorMatrix in="SourceAlpha" type="matrix" values="0 0 0 0 0 0 0 0 0 0 0 0 0 0 0 0 0 0 127 0" result="hardAlpha"/>
<feOffset dy="4"/>
<feGaussianBlur stdDeviation="2"/>
<feComposite in2="hardAlpha" operator="out"/>
<feColorMatrix type="matrix" values="0 0 0 0 0 0 0 0 0 0 0 0 0 0 0 0 0 0 0.25 0"/>
<feBlend mode="normal" in2="BackgroundImageFix" result="effect1_dropShadow_110_11"/>
<feBlend mode="normal" in="SourceGraphic" in2="effect1_dropShadow_110_11" result="shape"/>
</filter>
</defs>
</svg>
